<?xml version="1.0" encoding="utf-8"?><svg viewBox="0 0 36 36" xmlns="http://www.w3.org/2000/svg" xmlns:xlink="http://www.w3.org/1999/xlink"><style>:root>svg{display:none}:root>svg:target{display:block}</style><svg fill="inherit" viewBox="0 0 36 36" id="social_facebook" xmlns="http://www.w3.org/2000/svg"><path fill="#fff" d="M0 0h36v36H0z"/><path d="M0 0v36h36V0H0zm25.897 4.698a9.23 9.23 0 01.815.022c1.034.001 2.115.094 3.186.189l-.116 4.262h-2.879c-1.35-.03-1.837.495-1.88 2.018v3.348h4.875l-.193 4.566h-4.682v12.711h-4.758V19.103h-3.302v-4.566h3.302v-3.92c0-2.826 1.195-4.625 3.549-5.537.604-.238 1.299-.366 2.083-.382z"/></svg><svg fill="none" viewBox="0 0 36 36" id="social_instagram" xmlns="http://www.w3.org/2000/svg"><g clip-path="url(#bclip0_2111_4878)"><path d="M0 0v36.005h36v-36L0 0z" fill="gray"/><path d="M18 5c-3.53 0-3.973.015-5.36.079-1.383.063-2.328.282-3.155.604a6.366 6.366 0 00-2.303 1.499 6.382 6.382 0 00-1.5 2.302c-.322.827-.542 1.772-.604 3.155C5.016 14.026 5 14.47 5 18c0 3.53.016 3.972.079 5.359.063 1.384.282 2.329.604 3.155a6.37 6.37 0 001.499 2.303 6.365 6.365 0 002.302 1.5c.827.322 1.772.541 3.156.605 1.386.063 1.83.078 5.36.078 3.53 0 3.972-.015 5.359-.078 1.384-.064 2.33-.283 3.157-.605a6.361 6.361 0 002.301-1.5 6.382 6.382 0 001.5-2.302c.32-.827.54-1.772.605-3.156.062-1.386.078-1.828.078-5.359 0-3.53-.016-3.974-.078-5.36-.066-1.384-.285-2.329-.605-3.156a6.38 6.38 0 00-1.5-2.302 6.354 6.354 0 00-2.302-1.5c-.829-.321-1.774-.54-3.158-.603C21.97 5.015 21.529 5 17.997 5h.004zm-1.165 2.343H18c3.471 0 3.882.012 5.253.074 1.268.058 1.955.27 2.414.448a4.02 4.02 0 011.494.972c.455.455.736.889.973 1.495.177.458.39 1.146.447 2.414.063 1.37.076 1.782.076 5.251 0 3.47-.014 3.881-.076 5.252-.058 1.267-.27 1.955-.447 2.413a4.02 4.02 0 01-.973 1.493 4.021 4.021 0 01-1.494.972c-.458.179-1.146.39-2.414.448-1.37.063-1.782.076-5.253.076s-3.883-.014-5.253-.076c-1.268-.058-1.956-.27-2.414-.448a4.027 4.027 0 01-1.495-.972 4.029 4.029 0 01-.973-1.495c-.178-.457-.39-1.145-.448-2.413-.062-1.37-.074-1.782-.074-5.253 0-3.472.012-3.881.074-5.252.058-1.267.27-1.955.448-2.413.236-.607.518-1.04.973-1.495a4.035 4.035 0 011.495-.973c.458-.179 1.146-.39 2.414-.448 1.2-.055 1.664-.07 4.087-.074v.004zM24.94 9.5a1.56 1.56 0 100 3.12 1.56 1.56 0 000-3.12zM18 11.324a6.676 6.676 0 10.002 13.353A6.676 6.676 0 0018 11.324zm0 2.343a4.333 4.333 0 11.001 8.666 4.333 4.333 0 010-8.666z" fill="#fff"/></g><defs><clipPath id="bclip0_2111_4878"><path fill="#fff" d="M0 0h36v36H0z"/></clipPath></defs></svg><svg fill="none" viewBox="0 0 36 36" id="social_instagram2" xmlns="http://www.w3.org/2000/svg"><g clip-path="url(#cclip0_2111_4878)"><path d="M0 0v36.005h36v-36L0 0z" fill="gray"/><path d="M18 5c-3.53 0-3.973.015-5.36.079-1.383.063-2.328.282-3.155.604a6.366 6.366 0 00-2.303 1.499 6.382 6.382 0 00-1.5 2.302c-.322.827-.542 1.772-.604 3.155C5.016 14.026 5 14.47 5 18c0 3.53.016 3.972.079 5.359.063 1.384.282 2.329.604 3.155a6.37 6.37 0 001.499 2.303 6.365 6.365 0 002.302 1.5c.827.322 1.772.541 3.156.605 1.386.063 1.83.078 5.36.078 3.53 0 3.972-.015 5.359-.078 1.384-.064 2.33-.283 3.157-.605a6.361 6.361 0 002.301-1.5 6.382 6.382 0 001.5-2.302c.32-.827.54-1.772.605-3.156.062-1.386.078-1.828.078-5.359 0-3.53-.016-3.974-.078-5.36-.066-1.384-.285-2.329-.605-3.156a6.38 6.38 0 00-1.5-2.302 6.354 6.354 0 00-2.302-1.5c-.829-.321-1.774-.54-3.158-.603C21.97 5.015 21.529 5 17.997 5h.004zm-1.165 2.343H18c3.471 0 3.882.012 5.253.074 1.268.058 1.955.27 2.414.448a4.02 4.02 0 011.494.972c.455.455.736.889.973 1.495.177.458.39 1.146.447 2.414.063 1.37.076 1.782.076 5.251 0 3.47-.014 3.881-.076 5.252-.058 1.267-.27 1.955-.447 2.413a4.02 4.02 0 01-.973 1.493 4.021 4.021 0 01-1.494.972c-.458.179-1.146.39-2.414.448-1.37.063-1.782.076-5.253.076s-3.883-.014-5.253-.076c-1.268-.058-1.956-.27-2.414-.448a4.027 4.027 0 01-1.495-.972 4.029 4.029 0 01-.973-1.495c-.178-.457-.39-1.145-.448-2.413-.062-1.37-.074-1.782-.074-5.253 0-3.472.012-3.881.074-5.252.058-1.267.27-1.955.448-2.413.236-.607.518-1.04.973-1.495a4.035 4.035 0 011.495-.973c.458-.179 1.146-.39 2.414-.448 1.2-.055 1.664-.07 4.087-.074v.004zM24.94 9.5a1.56 1.56 0 100 3.12 1.56 1.56 0 000-3.12zM18 11.324a6.676 6.676 0 10.002 13.353A6.676 6.676 0 0018 11.324zm0 2.343a4.333 4.333 0 11.001 8.666 4.333 4.333 0 010-8.666z" fill="#fff"/></g><defs><clipPath id="cclip0_2111_4878"><path fill="#fff" d="M0 0h36v36H0z"/></clipPath></defs></svg><svg fill="inherit" viewBox="0 0 36 36" id="social_vk" xmlns="http://www.w3.org/2000/svg"><path fill="#fff" d="M0 0h36v36H0z"/><path d="M0 0v36h36V0H0zm15.98 9.626c1.02-.01 2.017.103 2.503.117 1.803.052 2.122.963 2.099 1.713-.034 1.1-.74 5.746.569 6.199 1.908-1.02 3.188-4.19 4.12-6.199.471-1.015.397-1.066 1.483-1.067l4.315-.007c1.04-.001.999-.038 1.332.387.774.987-2.444 5.094-3.483 6.23-1.918 2.095-.799 2.906-.49 3.194 1.431 1.334 2.814 2.718 3.674 3.994.683 1.015.401 1.96-.468 1.996l-4.628.19c-1.535.064-3.923-2.689-4.304-3.289-.308-.494-1.794-1.114-1.934.15l-.195 1.764c-.142 1.261-1.073 1.232-1.808 1.264-5.09.219-6.824-1.72-9.387-4.58-1.879-2.656-3.672-5.328-5.157-8.53-.445-.957-.68-1.66-.74-2.405.747-.585 3.37-.333 5.132-.372.482-.01.807.266 1.062.816.992 2.145 2.074 4.252 3.506 6.115.624.574 1.175.785 1.45-.383.16-.014.147-1.949.157-3.408.006-1.002-.112-2.203-1.809-2.757.344-.9 1.691-1.118 3.002-1.132z"/></svg><svg fill="inherit" viewBox="0 0 36 36" id="social_youtube" xmlns="http://www.w3.org/2000/svg"><path d="M0 0v36h36V0H0z"/><path d="M30.413 11.819a3.114 3.114 0 00-.894-1.428 3.597 3.597 0 00-1.56-.834C25.768 9 17.99 9 17.99 9c-3.659-.04-6.317.136-9.953.528a3.723 3.723 0 00-1.561.855c-.432.4-.744.894-.908 1.435A31.556 31.556 0 005 17.994c-.014 2.07.176 4.138.57 6.177.16.539.47 1.03.903 1.427a3.65 3.65 0 001.565.835c2.22.556 9.953.556 9.953.556 3.664.04 6.326-.137 9.968-.529a3.596 3.596 0 001.56-.834c.432-.397.739-.89.893-1.428a30.78 30.78 0 00.584-6.178c.03-2.081-.165-4.16-.583-6.202zM15 22v-8l7.503 3.995L15 22z" fill="#fff"/></svg></svg>