<?xml version="1.0" encoding="utf-8"?><svg viewBox="0 0 48 48" xmlns="http://www.w3.org/2000/svg" xmlns:xlink="http://www.w3.org/1999/xlink"><style>:root>svg{display:none}:root>svg:target{display:block}</style><svg fill="none" viewBox="0 0 32 32" id="abb_logo" xmlns="http://www.w3.org/2000/svg"><path d="M9 10.586a1 1 0 00.293.707l4.414 4.414a1 1 0 01.293.707v6.424a.1.1 0 00.145.09l3.302-1.652a1 1 0 00.553-.894v-3.968a1 1 0 01.293-.707l4.414-4.414a1 1 0 00.293-.707V9a1 1 0 00-1-1H10a1 1 0 00-1 1v1.586z" stroke="#0F0F0F" stroke-width="2"/></svg><svg fill="inherit" viewBox="0 0 24 24" id="cert" xmlns="http://www.w3.org/2000/svg"><path d="M4.027 14.137a.795.795 0 00.373.486l1.53.884v1.762a.8.8 0 00.8.8h1.762l.884 1.53a.803.803 0 001.094.293L12 19.01l1.53.884a.803.803 0 001.094-.293l.883-1.529h1.762a.801.801 0 00.8-.8v-1.762l1.53-.884a.8.8 0 00.293-1.095L19.008 12l.885-1.528a.801.801 0 00-.294-1.094l-1.529-.885V6.732a.801.801 0 00-.8-.8h-1.762l-.884-1.53a.804.804 0 00-1.094-.293L12 4.992l-1.53-.884a.8.8 0 00-1.094.292l-.884 1.53H6.73a.801.801 0 00-.8.801v1.762l-1.53.885a.802.802 0 00-.292 1.094L4.99 12l-.884 1.529a.803.803 0 00-.08.607z"/></svg><svg fill="none" viewBox="0 0 12 12" id="check" xmlns="http://www.w3.org/2000/svg"><path fill-rule="evenodd" clip-rule="evenodd" d="M10 4.414V3H8.586L4.5 7.086 3.414 6H2v1.414l1.793 1.793.707.707.707-.707L10 4.414z" fill="#fff"/></svg><svg fill="none" viewBox="0 0 16 16" id="ic16_email" xmlns="http://www.w3.org/2000/svg"><path d="M14.5 3h-13c-.277 0-.5.203-.5.455v9.09c0 .252.223.455.5.455h13c.277 0 .5-.203.5-.454V3.455c0-.252-.223-.455-.5-.455zM8 9L3 5h10L8 9z" fill="#261D1D" fill-opacity=".25"/></svg><svg fill="none" viewBox="0 0 16 16" id="ic16_phone" xmlns="http://www.w3.org/2000/svg"><g clip-path="url(#aeclip0)"><path d="M13.5 14C6.952 14.234 1.766 9.038 2 2.5 2.042 1.34 4.76 1.122 5.504.926a.6.6 0 01.413.036c.126.06.223.164.275.294l1.123 2.816c.048.12.054.255.018.386a.673.673 0 01-.219.336L5.521 6.115a8.538 8.538 0 004.364 4.364l1.321-1.593a.673.673 0 01.336-.22.604.604 0 01.386.019l2.816 1.123c.13.052.234.15.294.275.06.126.073.272.036.413-.163.617-.373 3.46-1.574 3.504z" fill="#261D1D" fill-opacity=".25"/></g><defs><clipPath id="aeclip0"><path fill="#fff" d="M0 0h16v16H0z"/></clipPath></defs></svg><svg fill="none" viewBox="0 0 24 24" id="ic24_account" xmlns="http://www.w3.org/2000/svg"><path fill-rule="evenodd" clip-rule="evenodd" d="M16 19h2a6 6 0 00-12 0h2a4 4 0 018 0z" fill="#0F0F0F"/><circle cx="12" cy="10" r="4" stroke="#0F0F0F" stroke-width="2"/></svg><svg fill="none" viewBox="0 0 24 24" id="ic24_arrow" xmlns="http://www.w3.org/2000/svg"><path d="M10 7l5 5-5 5" stroke="inherit"/></svg><svg fill="none" viewBox="0 0 24 24" id="ic24_cancel" xmlns="http://www.w3.org/2000/svg"><path d="M8 8l8 8M16 8l-8 8" stroke="#A9A9A9" stroke-width="2"/></svg><svg fill="inherit" viewBox="0 0 24 24" id="ic24_download" xmlns="http://www.w3.org/2000/svg"><path d="M16 11l-4 4-4-4h8z"/><path fill-rule="evenodd" clip-rule="evenodd" d="M15 17h4v2H5v-2h10zm-2-4V5h-2v8h2z"/></svg><svg fill="inherit" viewBox="0 0 24 24" id="ic24_dropdown_arrow" xmlns="http://www.w3.org/2000/svg"><path d="M7.854 10.854A.5.5 0 018.207 10h7.586a.5.5 0 01.353.854l-3.792 3.792a.5.5 0 01-.708 0l-3.792-3.792z"/></svg><svg fill="none" viewBox="0 0 24 24" id="ic24_dropdown_arrow_up" xmlns="http://www.w3.org/2000/svg"><path d="M16.146 14.146a.5.5 0 01-.353.854H8.207a.5.5 0 01-.353-.854l3.792-3.792a.5.5 0 01.708 0l3.792 3.792z" fill="#A9A9A9"/></svg><svg fill="inherit" viewBox="0 0 24 24" id="ic24_external_link" xmlns="http://www.w3.org/2000/svg"><path d="M9 5v1H6v12h12v-3h1v3a1 1 0 01-1 1H6a1 1 0 01-1-1V6a1 1 0 011-1h3zm10 0v7h-1V6.7l-7 7-.7-.7 7-7H12V5h7z"/></svg><svg fill="inherit" viewBox="0 0 24 24" id="ic24_external_link_bttn" xmlns="http://www.w3.org/2000/svg"><path d="M9 5v2H7v10h10v-2h2v3a1 1 0 01-1 1H6a1 1 0 01-1-1V6a1 1 0 011-1h3zm10 0v7h-2V8.4L11.4 14 10 12.6 15.6 7H12V5h7z"/></svg><svg fill="none" viewBox="0 0 24 24" id="ic24_file" xmlns="http://www.w3.org/2000/svg"><path fill-rule="evenodd" clip-rule="evenodd" d="M14 5H6v14h12V9l-4-4zm-.8 2H12v4h4V9.8L13.2 7z" fill="#261D1D" fill-opacity=".25"/></svg><svg fill="none" viewBox="0 0 24 24" id="ic24_file_bttn" xmlns="http://www.w3.org/2000/svg"><path d="M7 6h6.586L17 9.414V18H7V6z" stroke="#0F0F0F" stroke-width="2"/><path d="M12 7h1.2L16 9.8V11h-4V7z" fill="#0F0F0F"/></svg><svg fill="inherit" viewBox="0 0 24 24" id="ic24_file_bttn-colorful" xmlns="http://www.w3.org/2000/svg"><path d="M7 6h6.586L17 9.414V18H7V6z" stroke="inherit" fill="none" stroke-width="2"/><path d="M12 7h1.2L16 9.8V11h-4V7z"/></svg><svg fill="inherit" viewBox="0 0 24 24" id="ic24_home" xmlns="http://www.w3.org/2000/svg"><path fill-rule="evenodd" clip-rule="evenodd" d="M12 2c.3 0 .5.1.7.3l8.651 8c.4.4.4 1 0 1.4-.4.4-1 .4-1.4 0v6.6c0 1.5-1.2 2.7-2.7 2.7H6.58c-1.5 0-2.7-1.2-2.7-2.7v-6.6c-.4.4-1 .3-1.4 0-.4-.4-.4-1 0-1.4l8.72-8c.3-.2.5-.3.8-.3zM5.979 9.7v8.6c0 .4.3.7.6.7H9v-6h6v6h2.351c.4 0 .7-.3.7-.7V9.7L12 4.4 5.979 9.7zm7.02 9.3v-4h-2v4h2z"/></svg><svg fill="none" viewBox="0 0 24 24" id="ic24_info" xmlns="http://www.w3.org/2000/svg"><rect x="4" y="4" width="16" height="16" rx="8" fill="#261D1D" fill-opacity=".25"/><path d="M11 8h2v2h-2V8zm0 4h2v4h-2v-4z" fill="#fff"/></svg><svg fill="none" viewBox="0 0 24 24" id="ic24_info_hover" xmlns="http://www.w3.org/2000/svg"><path d="M11 8h2v2h-2V8zm0 4h2v4h-2v-4z" fill="#0F0F0F"/><rect x="5" y="5" width="14" height="14" rx="7" stroke="#0F0F0F" stroke-width="2"/></svg><svg fill="inherit" viewBox="0 0 24 24" id="ic24_info_hover_g" xmlns="http://www.w3.org/2000/svg"><path d="M11 8h2v2h-2V8zm0 4h2v4h-2v-4z" stroke="transparent"/><rect x="5" y="5" width="14" height="14" rx="7" stroke="inherit" fill="transparent" stroke-width="2"/></svg><svg fill="none" viewBox="0 0 24 24" id="ic24_minus" xmlns="http://www.w3.org/2000/svg"><path d="M19 11H5v2h14v-2z" fill="#0F0F0F"/></svg><svg fill="none" viewBox="0 0 24 24" id="ic24_plus" xmlns="http://www.w3.org/2000/svg"><path d="M19 11h-6V5h-2v6H5v2h6v6h2v-6h6v-2z" fill="#0F0F0F"/></svg><svg fill="inherit" viewBox="0 0 24 24" id="ic24_replacement" xmlns="http://www.w3.org/2000/svg"><path d="M10 11H7.101l.001-.009c.13-.64.386-1.247.752-1.787a5.054 5.054 0 012.2-1.811c.302-.128.617-.226.938-.291a5.078 5.078 0 012.018 0c.957.196 1.835.67 2.525 1.361l1.416-1.412a7.036 7.036 0 00-2.224-1.501 6.921 6.921 0 00-1.315-.408 7.079 7.079 0 00-2.819 0c-.451.092-.892.23-1.316.409a7.04 7.04 0 00-3.08 2.534 6.978 6.978 0 00-1.054 2.505c-.028.135-.043.273-.063.41H2l4 4 4-4zm4 2h2.899l-.001.008a4.976 4.976 0 01-2.103 3.138 4.942 4.942 0 01-1.787.752 5.073 5.073 0 01-2.017 0 4.956 4.956 0 01-1.787-.752 5.075 5.075 0 01-.74-.61L7.05 16.95a7.031 7.031 0 002.225 1.5c.424.18.867.317 1.315.408.93.19 1.888.19 2.818 0a7.031 7.031 0 004.395-2.945 6.974 6.974 0 001.053-2.503c.027-.135.043-.273.063-.41H22l-4-4-4 4z"/></svg><svg fill="none" viewBox="0 0 24 24" id="ic24_search" xmlns="http://www.w3.org/2000/svg"><path d="M14.1 14.1L19 19l-4.9-4.9zm-3.85 1.4a5.251 5.251 0 100-10.502 5.251 5.251 0 000 10.502v0z" stroke="inherit" stroke-width="2"/></svg><svg fill="none" viewBox="0 0 32 32" id="ic24_search-m" xmlns="http://www.w3.org/2000/svg"><path d="M18.1 18.1L23 23l-4.9-4.9zm-3.85 1.4a5.251 5.251 0 100-10.502 5.251 5.251 0 000 10.502v0z" stroke="inherit" stroke-width="2"/></svg><svg fill="none" viewBox="0 0 24 24" id="ic24_upload" xmlns="http://www.w3.org/2000/svg"><path d="M8 9l4-4 4 4H8z" fill="#0F0F0F"/><path fill-rule="evenodd" clip-rule="evenodd" d="M15 17h4v2H5v-2h10zm-2-2V7h-2v8h2z" fill="#0F0F0F"/></svg><svg fill="none" viewBox="0 0 24 24" id="ic24_video" xmlns="http://www.w3.org/2000/svg"><path fill-rule="evenodd" clip-rule="evenodd" d="M5 5a1 1 0 00-1 1v12a1 1 0 001 1h14a1 1 0 001-1V6a1 1 0 00-1-1H5zm5 10l5-3-5-3v6z" fill="#261D1D" fill-opacity=".25"/></svg><svg fill="none" viewBox="0 0 24 24" id="ic24_visible_off" xmlns="http://www.w3.org/2000/svg"><path d="M10.157 10.31a2.5 2.5 0 003.593 3.476M20 20L4 4" stroke="#A9A9A9" stroke-width="2" stroke-linecap="round" stroke-linejoin="round"/><path fill-rule="evenodd" clip-rule="evenodd" d="M19.52 15.278a20.98 20.98 0 002.105-2.43c.064-.088.113-.158.148-.208l.04-.058.012-.016.003-.006.001-.001.001-.001L21 12l.83.558a1 1 0 000-1.115L21 12l.83-.558-.002-.002-.003-.006-.012-.016a8.723 8.723 0 00-.188-.266 20.647 20.647 0 00-2.583-2.888C17.358 6.714 14.87 5 12 5a7.71 7.71 0 00-2.051.286l-.33.09 1.671 1.672A5.37 5.37 0 0112 7c2.1 0 4.112 1.285 5.687 2.736A18.65 18.65 0 0119.76 12a19.004 19.004 0 01-1.653 1.864l1.414 1.414zM4.48 8.722a20.942 20.942 0 00-2.105 2.43 12.208 12.208 0 00-.188.266l-.012.017-.003.005-.001.001v.001H2.17L3 12l-.83-.557a1 1 0 000 1.114L3 12l-.83.558.002.002.003.006.012.016a9.026 9.026 0 00.188.266 20.637 20.637 0 002.583 2.888C6.642 17.286 9.13 19 12 19c.717 0 1.41-.108 2.068-.29l.312-.087-1.67-1.67A5.365 5.365 0 0112 17c-2.1 0-4.112-1.285-5.687-2.736A18.652 18.652 0 014.24 12a18.948 18.948 0 011.653-1.864L4.48 8.722z" fill="#A9A9A9"/></svg><svg fill="none" viewBox="0 0 24 24" id="ic24_visible_on" xmlns="http://www.w3.org/2000/svg"><path d="M12 18c4.97 0 9-6 9-6s-4.03-6-9-6-9 6-9 6 4.03 6 9 6z" stroke="#A9A9A9" stroke-width="2"/><path d="M12 14.5a2.5 2.5 0 100-5 2.5 2.5 0 000 5z" stroke="#A9A9A9" stroke-width="2" stroke-linejoin="round"/></svg><svg fill="none" viewBox="0 0 24 24" id="ic24_warning" xmlns="http://www.w3.org/2000/svg"><rect x="4" y="4" width="16" height="16" rx="8" fill="#FF000F"/><path d="M13 16h-2v-2h2v2zm0-4h-2V8h2v4z" fill="#fff"/></svg><svg fill="none" viewBox="0 0 32 32" id="ic32_account" xmlns="http://www.w3.org/2000/svg"><path fill-rule="evenodd" clip-rule="evenodd" d="M9 13c0-3.854 3.146-7 7-7s7 3.146 7 7a7.02 7.02 0 01-3.094 5.812A10.093 10.093 0 0125.536 25h-2.114A7.986 7.986 0 0016 20a7.986 7.986 0 00-7.422 5H6.464a10.092 10.092 0 015.63-6.187A7.023 7.023 0 019 13zm12 0c0-2.773-2.227-5-5-5s-5 2.227-5 5 2.227 5 5 5 5-2.227 5-5z" fill="#0F0F0F"/></svg><svg fill="inherit" viewBox="0 0 32 32" id="ic32_arrow" xmlns="http://www.w3.org/2000/svg"><path d="M19 11l-5 5 5 5-1 2-7-7 7-7 1 2z"/></svg><svg fill="none" viewBox="0 0 32 32" id="ic32_arrow_left" xmlns="http://www.w3.org/2000/svg"><path d="M19 11l-5 5 5 5-1 2-7-7 7-7 1 2z" fill="#0F0F0F"/></svg><svg fill="none" viewBox="0 0 32 32" id="ic32_cancel" xmlns="http://www.w3.org/2000/svg"><path fill-rule="evenodd" clip-rule="evenodd" d="M25 16a9 9 0 11-18 0 9 9 0 0118 0zm-10.414 0l-2.293-2.293 1.414-1.414L16 14.586l2.293-2.293 1.414 1.414L17.414 16l2.293 2.293-1.414 1.414L16 17.414l-2.293 2.293-1.414-1.414L14.586 16z" fill="#D3D1D1"/></svg><svg fill="none" viewBox="0 0 32 32" id="ic32_filter" xmlns="http://www.w3.org/2000/svg"><path d="M9 10.586a1 1 0 00.293.707l4.414 4.414a1 1 0 01.293.707v6.424a.1.1 0 00.145.09l3.302-1.652a1 1 0 00.553-.894v-3.968a1 1 0 01.293-.707l4.414-4.414a1 1 0 00.293-.707V9a1 1 0 00-1-1H10a1 1 0 00-1 1v1.586z" stroke="inherit" stroke-width="2"/></svg><svg fill="inherit" viewBox="0 0 32 32" id="ic32_logout" xmlns="http://www.w3.org/2000/svg"><path d="M23 25H9a2 2 0 01-2-2v-4h2v4h14V9H9v4H7V9a2 2 0 012-2h14a2 2 0 012 2v14a2 2 0 01-2 2zm-8-5v-3H7v-2h8v-3l5 4-5 4z"/></svg><svg fill="none" viewBox="0 0 24 24" id="ic_cancel" xmlns="http://www.w3.org/2000/svg"><path d="M8 8l8 8M16 8l-8 8" stroke="inherit" stroke-width="2"/></svg><svg fill="none" viewBox="0 0 48 48" id="ic_close" xmlns="http://www.w3.org/2000/svg"><path d="M16 16l16 16M32 16L16 32" stroke="inherit" stroke-width="2"/></svg><svg fill="none" viewBox="0 0 32 32" id="icons" xmlns="http://www.w3.org/2000/svg"><path d="M18.1 18.1L23 23l-4.9-4.9zm-3.85 1.4a5.251 5.251 0 100-10.502 5.251 5.251 0 000 10.502v0z" stroke="#0F0F0F" stroke-width="2"/></svg></svg>